<?xml version="1.0" encoding="UTF-8"?>
<svg version="1.1" xmlns="http://www.w3.org/2000/svg" width="644" height="308">
<path d="M0 0 C5.78219538 2.8344095 9.7157761 7.39702473 11.86953735 13.43954468 C12.65687488 16.34566648 13.33827734 19.25930524 13.98828125 22.19921875 C14.24843018 23.31440384 14.5085791 24.42958893 14.77661133 25.5785675 C15.34016607 28.00394423 15.89633428 30.4310465 16.44595337 32.85961914 C17.32644409 36.74909659 18.22619545 40.63384837 19.1315918 44.51757812 C20.93511679 52.26866794 22.71477391 60.02514544 24.49182129 67.782341 C26.90605116 78.31788385 29.32958033 88.85120493 31.77826214 99.37879848 C32.62107433 103.00544613 33.45840166 106.63316356 34.28189087 110.26425171 C43.63550111 156.06215354 43.63550111 156.06215354 69 194 C69.64453125 194.60070312 70.2890625 195.20140625 70.953125 195.8203125 C80.45483067 203.8156502 92.21570948 203.57754083 104 203 C105.69038186 202.79316003 107.37888309 202.56864001 109.0625 202.3125 C114.42313069 201.88705312 117.62046991 203.09637593 121.875 206.5 C124.53146621 210.04195494 124.43079338 213.76386506 124 218 C121.14396212 222.32485736 118.86961416 224.40539801 114 226 C94.9976886 229.04266618 73.52562638 228.54879212 57.375 217.25 C47.66802942 209.80617143 41.12387651 201.49151477 35 191 C34.12214844 189.49953125 34.12214844 189.49953125 33.2265625 187.96875 C28.25400335 178.72399214 24.94952973 168.85286793 21.55102539 158.94873047 C18.20734411 148.17747401 18.20734411 148.17747401 12 139 C9.54967567 138.76368577 7.21573267 138.64781921 4.76171875 138.62890625 C4.04393753 138.61987778 3.32615631 138.6108493 2.58662415 138.60154724 C1.06601133 138.58702964 -0.45466416 138.57815425 -1.9753418 138.57446289 C-4.29389003 138.56259526 -6.60975066 138.51345854 -8.92773438 138.46289062 C-10.40623703 138.45342274 -11.88475602 138.44618945 -13.36328125 138.44140625 C-14.39791252 138.41210777 -14.39791252 138.41210777 -15.45344543 138.38221741 C-19.24536929 138.41746436 -20.87875436 138.90405619 -23.88500977 141.28295898 C-25.7491206 143.67770554 -26.7525817 145.1466945 -27.4765625 148.03125 C-27.6725 148.75957031 -27.8684375 149.48789063 -28.0703125 150.23828125 C-28.25335938 150.98464844 -28.43640625 151.73101562 -28.625 152.5 C-31.67710877 164.44034446 -31.67710877 164.44034446 -35.9140625 167.28515625 C-39.63589136 168.56061446 -43.13111766 168.66935681 -47 168 C-50.57236674 166.0729972 -52.69560702 163.91317895 -54 160 C-54.23160241 155.07548402 -53.68583363 150.79641515 -52.55395508 146.00976562 C-52.3990177 145.34500528 -52.24408031 144.68024494 -52.08444786 143.99534035 C-51.57016252 141.79717496 -51.04488603 139.60179375 -50.51953125 137.40625 C-50.15055183 135.8389351 -49.78226618 134.27145674 -49.41462708 132.7038269 C-48.4274118 128.50304898 -47.43067289 124.30458631 -46.43183136 120.10655975 C-45.39733653 115.75271501 -44.37067192 111.39702484 -43.34326172 107.04150391 C-42.0985558 101.76750305 -40.85267172 96.49378838 -39.60241699 91.22109985 C-37.21693397 81.16075032 -34.84938168 71.09654313 -32.50910759 61.02558136 C-31.48908489 56.6392821 -30.46396313 52.25417074 -29.43954468 47.86889648 C-28.90140587 45.56061144 -28.36525581 43.25186175 -27.83120728 40.94262695 C-27.09431286 37.75971538 -26.3489706 34.5788941 -25.6015625 31.3984375 C-25.39497513 30.49656708 -25.18838776 29.59469666 -24.97554016 28.66549683 C-19.82099242 6.91415377 -19.82099242 6.91415377 -11.75 1.625 C-7.62890893 -0.47525626 -4.58586429 -0.58233197 0 0 Z M-7.57348633 62.4987793 C-9.48612722 65.85236579 -10.13109564 69.26843002 -10.82421875 73.01953125 C-10.97534622 73.79632736 -11.12647369 74.57312347 -11.28218079 75.37345886 C-11.59892326 77.01402379 -11.91043233 78.65560668 -12.21704102 80.2980957 C-12.68438029 82.79582649 -13.16990228 85.28949529 -13.65820312 87.78320312 C-13.96463167 89.38260405 -14.2700046 90.98220766 -14.57421875 92.58203125 C-14.71792404 93.32081009 -14.86162933 94.05958893 -15.00968933 94.820755 C-15.82803252 99.25744547 -16.31311655 103.46820021 -16 108 C-14.21345939 110.20595109 -14.21345939 110.20595109 -11.84521484 110.22705078 C-10.54124756 110.21134033 -10.54124756 110.21134033 -9.2109375 110.1953125 C-7.79941406 110.18564453 -7.79941406 110.18564453 -6.359375 110.17578125 C-5.37453125 110.15902344 -4.3896875 110.14226562 -3.375 110.125 C-2.38242188 110.11597656 -1.38984375 110.10695312 -0.3671875 110.09765625 C2.08878134 110.07404116 4.54427168 110.04110799 7 110 C9.73726675 104.5254665 7.63842241 97.15780266 6.35546875 91.44921875 C6.18501541 90.66859573 6.01456207 89.88797272 5.83894348 89.08369446 C5.47914799 87.4483302 5.11505201 85.81390661 4.74682617 84.18041992 C4.18579236 81.67988902 3.64593415 79.17538756 3.10742188 76.66992188 C2.75386956 75.07523976 2.39909482 73.48082807 2.04296875 71.88671875 C1.88346237 71.13984299 1.72395599 70.39296722 1.55961609 69.62345886 C0.47722225 64.5565395 0.47722225 64.5565395 -3 61 C-6.00013342 60.65514576 -6.00013342 60.65514576 -7.57348633 62.4987793 Z " fill="#4A6145" transform="translate(72,40)"/>
<path d="M0 0 C7.6439536 5.66218785 13.30961598 13.94227047 14.73046875 23.46875 C14.89525078 28.28325097 14.61523998 31.96934976 11.3203125 35.71875 C7.52805914 38.66828039 4.08993624 39.46323444 -0.6796875 39.71875 C-5.22074104 38.66269104 -7.11221863 36.52854251 -9.6796875 32.71875 C-10.3153839 31.36957157 -10.93981395 30.01504464 -11.5546875 28.65625 C-13.57096963 24.5696092 -15.38592175 22.59239324 -19.6796875 20.71875 C-24.73689658 20.06304629 -29.21997519 20.29410642 -34.1171875 21.71875 C-38.50059891 25.13994915 -40.24802161 28.9431787 -41.09765625 34.40625 C-41.38148481 39.92940026 -40.81934496 44.18230934 -37.53515625 48.69921875 C-31.45201162 55.32024143 -24.06483076 60.51044368 -16.7421875 65.65625 C-3.13106245 75.23905481 9.90333117 85.04016824 13.875 102.1015625 C16.36929999 116.76104492 12.02885062 130.88292344 3.76171875 143.00390625 C-3.51594712 152.0617206 -14.46113633 157.57478013 -25.5546875 160.46875 C-39.99485062 161.62396305 -52.06310656 159.94420675 -63.6796875 150.71875 C-69.02292568 145.71676065 -72.86140421 140.45877142 -75.6796875 133.71875 C-76.0715625 132.89375 -76.4634375 132.06875 -76.8671875 131.21875 C-78.88607989 125.00677341 -79.36519234 119.76113589 -76.6796875 113.71875 C-74.071917 110.28468012 -71.46775323 108.11421478 -67.20703125 107.171875 C-62.92138536 106.93917025 -60.21510074 107.44599231 -56.3671875 109.40625 C-52.73983181 112.93228291 -51.66505621 117.94785817 -50.03515625 122.60546875 C-48.17756364 126.87204312 -45.6820132 129.40460907 -41.6796875 131.71875 C-36.31589617 133.50668044 -30.79196412 133.40930197 -25.4296875 131.65625 C-20.05940896 127.87264466 -15.9456137 123.30156624 -14.6796875 116.71875 C-14.12976736 110.12970692 -14.09473129 104.47640695 -17.6796875 98.71875 C-23.51665909 92.79642871 -30.13759824 88.23382317 -37.1171875 83.78125 C-50.32769152 75.14773138 -63.49106076 65.80047235 -67.6796875 49.71875 C-69.74141595 36.03910649 -68.78333179 22.87421643 -60.9921875 11.1875 C-46.24497704 -8.55473336 -20.79953185 -13.30126802 0 0 Z " fill="#4A6145" transform="translate(556.6796875,48.28125)"/>
<path d="M0 0 C1.08162415 -0.01283524 2.16324829 -0.02567047 3.27764893 -0.03889465 C4.45156189 -0.04628159 5.62547485 -0.05366852 6.83496094 -0.0612793 C8.03868347 -0.06935104 9.24240601 -0.07742279 10.48260498 -0.08573914 C13.03477534 -0.09959009 15.5869643 -0.1103077 18.13916016 -0.11816406 C22.03942076 -0.13536611 25.93883163 -0.17924384 29.83886719 -0.22338867 C32.31672553 -0.23351624 34.79459109 -0.24203214 37.27246094 -0.2487793 C38.43827698 -0.26628738 39.60409302 -0.28379547 40.80523682 -0.30183411 C47.0953526 -0.2850167 51.08759167 -0.15341585 55.81933594 4.17700195 C58.32834392 7.99505758 57.9868206 11.65650449 57.35449219 16.0246582 C56.55225173 19.25118734 55.28796927 20.9752479 52.81933594 23.17700195 C48.38276151 25.00161566 44.62144913 25.41689467 39.84667969 25.4152832 C38.53505859 25.43139648 37.2234375 25.44750977 35.87207031 25.46411133 C33.80925868 25.48058628 31.74719854 25.48946903 29.68432617 25.48242188 C27.67585312 25.47979642 25.667421 25.50966073 23.65917969 25.5402832 C22.46671631 25.54326416 21.27425293 25.54624512 20.0456543 25.54931641 C15.75927291 26.38323896 14.33275983 27.6235808 11.81933594 31.17700195 C11.36813357 34.1345485 11.20727506 36.4940222 11.29589844 39.43481445 C11.30295303 40.61211624 11.30295303 40.61211624 11.31015015 41.8132019 C11.33142556 44.3103766 11.38799986 46.80539876 11.44433594 49.30200195 C11.46085122 50.98817982 11.47519718 52.67438042 11.48730469 54.3605957 C11.33761963 62.38883095 11.33761963 62.38883095 12.81933594 70.17700195 C13.6058252 70.19158447 14.39231445 70.20616699 15.20263672 70.22119141 C18.78368552 70.29589558 22.36382504 70.39248402 25.94433594 70.48950195 C27.18183594 70.51206055 28.41933594 70.53461914 29.69433594 70.55786133 C31.49257813 70.61103516 31.49257813 70.61103516 33.32714844 70.6652832 C34.42687988 70.69146729 35.52661133 70.71765137 36.65966797 70.74462891 C40.2717434 71.23890998 42.70874113 72.29568867 45.81933594 74.17700195 C48.77596241 78.51338745 49.45675611 81.98658058 48.81933594 87.17700195 C47.51628653 90.81376131 46.02254523 93.58622816 42.43261719 95.34887695 C36.15177536 96.788378 29.74248437 96.57596295 23.32128906 96.65551758 C21.75217773 96.69515625 21.75217773 96.69515625 20.15136719 96.7355957 C18.72401245 96.75577759 18.72401245 96.75577759 17.26782227 96.77636719 C14.84155586 97.03271387 14.84155586 97.03271387 13.01098633 98.17553711 C11.06445901 101.44487351 11.39294109 104.94422055 11.42089844 108.6418457 C11.41802826 109.47156387 11.41515808 110.30128204 11.41220093 111.15614319 C11.4101601 112.91041751 11.41569129 114.66471457 11.42822266 116.41894531 C11.44425634 119.10118691 11.42838571 121.78191707 11.40917969 124.46411133 C11.41116252 126.16919277 11.41500701 127.87427328 11.42089844 129.5793457 C11.41482574 130.38049301 11.40875305 131.18164032 11.40249634 132.00706482 C11.44385422 135.29070044 11.58006393 137.7342308 13.15673828 140.65185547 C16.61810104 143.82705858 20.74312511 143.32618074 25.15527344 143.3527832 C26.62664192 143.37598115 28.09799613 143.40009848 29.56933594 143.42504883 C31.88225873 143.46014517 34.19465591 143.48950381 36.5078125 143.50292969 C38.74510832 143.51844657 40.98088215 143.55867138 43.21777344 143.6027832 C43.90439056 143.60087479 44.59100769 143.59896637 45.2984314 143.59700012 C50.05406085 143.7175379 52.48905499 144.80088438 55.81933594 148.17700195 C58.07095154 152.78257932 58.14014001 156.2460001 56.81933594 161.17700195 C54.95415813 164.08563588 52.96305428 166.60514278 49.81933594 168.17700195 C48.09500333 168.28790907 46.36647562 168.33618482 44.63867188 168.35400391 C43.01623566 168.37325676 43.01623566 168.37325676 41.36102295 168.39289856 C40.18710999 168.40028549 39.01319702 168.40767242 37.80371094 168.4152832 C35.99812714 168.42739082 35.99812714 168.42739082 34.15606689 168.43974304 C31.60389654 168.453594 29.05170757 168.46431161 26.49951172 168.47216797 C22.59925111 168.48937001 18.69984025 168.53324775 14.79980469 168.57739258 C12.32194635 168.58752015 9.84408079 168.59603605 7.36621094 168.6027832 C6.2003949 168.62029129 5.03457886 168.63779938 3.83343506 168.65583801 C-6.74407967 168.62755771 -6.74407967 168.62755771 -11.18066406 164.17700195 C-15.0948521 157.49821648 -14.59684279 150.75603706 -14.55297852 143.18286133 C-14.55540921 141.76463047 -14.55913123 140.34640132 -14.56404114 138.92817688 C-14.5734158 135.09137465 -14.56405369 131.25482907 -14.55070901 127.41804695 C-14.53935784 123.39478666 -14.54350485 119.37153832 -14.54545593 115.3482666 C-14.54633775 108.59305653 -14.53528203 101.83794703 -14.5168457 95.08276367 C-14.4956798 87.28299621 -14.49216889 79.48337601 -14.49840766 71.68358564 C-14.50411087 64.16735873 -14.49844439 56.65118346 -14.48723412 49.13496399 C-14.48260079 45.94215435 -14.48170878 42.74937641 -14.48381996 39.55656433 C-14.4857096 35.79395237 -14.47754726 32.03148936 -14.46175957 28.26891136 C-14.45552326 26.23664157 -14.45901446 24.20434915 -14.46282959 22.17207336 C-14.39543071 10.57022026 -14.39543071 10.57022026 -12.18066406 5.17700195 C-8.10529943 1.30540556 -5.52503839 0.05698049 0 0 Z " fill="#4A6045" transform="translate(389.1806640625,39.822998046875)"/>
<path d="M0 0 C1.52718407 -0.00855011 1.52718407 -0.00855011 3.08522034 -0.01727295 C5.23266571 -0.02669306 7.38012534 -0.03324501 9.52758789 -0.03710938 C12.80185181 -0.04683178 16.07549207 -0.07789074 19.34960938 -0.109375 C21.44140254 -0.11590431 23.53320017 -0.12115506 25.625 -0.125 C26.5981163 -0.1373468 27.5712326 -0.1496936 28.57383728 -0.16241455 C34.29226258 -0.14378256 38.33124072 0.45008083 43.37890625 3.203125 C46.25282463 6.26245747 46.64084978 9.07535293 46.87890625 13.140625 C46.75649011 16.56317611 46.40936283 18.9112472 44.37890625 21.703125 C38.25519338 26.80621906 31.08960289 26.42037473 23.50390625 26.203125 C13.23436609 25.80979391 13.23436609 25.80979391 3.37890625 28.203125 C0.88823334 31.93913436 1.05565684 34.90110233 1.04296875 39.23046875 C1.03298355 40.40845787 1.03298355 40.40845787 1.02279663 41.61024475 C1.0126771 43.27033141 1.0079794 44.9304587 1.00830078 46.59057617 C1.00392779 49.12812404 0.96760453 51.6639318 0.9296875 54.20117188 C0.92381908 55.81509822 0.91984985 57.42903283 0.91796875 59.04296875 C0.90359772 59.8003685 0.88922668 60.55776825 0.87442017 61.33811951 C0.90373346 64.72409293 1.13684482 66.84136794 3.03881836 69.68383789 C5.98575321 71.59711651 7.78106962 71.68711092 11.28125 71.671875 C12.41884766 71.68605469 13.55644531 71.70023437 14.72851562 71.71484375 C17.1165365 71.70704401 19.50455733 71.69923155 21.89257812 71.69140625 C23.03146484 71.70558594 24.17035156 71.71976562 25.34375 71.734375 C26.38136475 71.72986328 27.41897949 71.72535156 28.48803711 71.72070312 C32.1194334 72.32670254 33.76074087 73.66338593 36.37890625 76.203125 C38.6971219 80.8395563 38.97435083 85.29561824 37.37890625 90.203125 C35.18632816 92.84546269 33.44551007 94.66982309 30.37890625 96.203125 C28.54019788 96.32107988 26.69767896 96.38207255 24.85546875 96.4140625 C23.75203125 96.44242187 22.64859375 96.47078125 21.51171875 96.5 C19.18114712 96.55190583 16.85039376 96.59622946 14.51953125 96.6328125 C13.41351563 96.66375 12.3075 96.6946875 11.16796875 96.7265625 C10.15428223 96.74638184 9.1405957 96.76620117 8.09619141 96.78662109 C4.9504123 97.26880431 3.56978298 97.90211728 1.37890625 100.203125 C-1.82239695 111.38276586 0.34603406 125.87937368 0.47485352 137.45996094 C0.5051765 140.37956333 0.52285165 143.29903987 0.5390625 146.21875 C0.55252213 147.10226135 0.56598175 147.98577271 0.57984924 148.89605713 C0.60514344 155.19631126 0.57168408 161.68787984 -3.74609375 166.640625 C-7.40732206 168.63042299 -10.45459386 169.39958079 -14.62109375 169.203125 C-18.72043595 167.86295543 -21.46044955 166.03218251 -23.79380989 162.35067749 C-25.78716769 157.17610476 -25.16286624 151.31789394 -25.12280273 145.84765625 C-25.12658856 144.37868737 -25.13209077 142.90972206 -25.13917542 141.44076538 C-25.15311318 137.46135345 -25.1419723 133.4823747 -25.1254642 129.50298691 C-25.11159114 125.33377511 -25.11807635 121.16458789 -25.12159729 116.99536133 C-25.12429763 109.99455808 -25.110839 102.99392646 -25.08764648 95.99316406 C-25.0610378 87.9053581 -25.05929028 79.81783904 -25.07103485 71.73000431 C-25.08182324 63.94198508 -25.07561724 56.15406937 -25.06147957 48.36605835 C-25.05572896 45.05518133 -25.05579516 41.74438031 -25.06054497 38.4335022 C-25.06532594 34.532953 -25.05516698 30.63271698 -25.03359032 26.73222733 C-25.02803748 25.30280234 -25.02754334 23.87334716 -25.03254318 22.44392014 C-25.03852266 20.48889232 -25.02412081 18.53383414 -25.0087738 16.57885742 C-25.00634391 15.48602951 -25.00391401 14.3932016 -25.00141048 13.26725769 C-24.43059909 8.66834919 -22.98141806 5.26932514 -19.30859375 2.390625 C-13.17169032 -0.32103001 -6.58747497 0.02870967 0 0 Z " fill="#4B6146" transform="translate(253.62109375,39.796875)"/>
<path d="M0 0 C4.16032232 2.3401813 5.53399075 4.55855194 7 9 C7.25333309 11.63432407 7.25333309 11.63432407 7.25828552 14.50965881 C7.26852753 16.15205788 7.26852753 16.15205788 7.27897644 17.82763672 C7.27514702 19.61463989 7.27514702 19.61463989 7.27124023 21.43774414 C7.27926309 23.37527888 7.28728838 25.31281362 7.29540551 27.25034797 C7.30225077 29.32752949 7.30425997 31.40466701 7.30496025 33.48185921 C7.30690406 37.81426631 7.32497298 42.14651416 7.34571838 46.47886658 C7.39485869 57.23710764 7.42580901 67.99539175 7.44702148 78.75372314 C7.4635405 87.12012957 7.48633253 95.48639896 7.53004223 103.85271353 C7.55182675 108.15939813 7.55987581 112.46582242 7.55764949 116.77255833 C7.55970647 120.07899699 7.58105886 123.3852628 7.59936523 126.69165039 C7.59478806 127.88501007 7.59021088 129.07836975 7.585495 130.30789185 C7.59514282 131.40000473 7.60479065 132.49211761 7.61473083 133.61732483 C7.61674216 134.56580827 7.61875349 135.51429171 7.62082577 136.49151707 C8.06824953 139.45151483 8.98200415 140.8224008 11 143 C14.51966885 144.49782618 18.44510292 144.14300089 22.21484375 144.17578125 C23.63738468 144.19897378 25.05991079 144.22309089 26.48242188 144.24804688 C28.71193482 144.28316312 30.94089826 144.31252043 33.1706543 144.32592773 C35.33188214 144.34144522 37.49153485 144.3816607 39.65234375 144.42578125 C40.94132568 144.44036377 42.23030762 144.45494629 43.55834961 144.4699707 C47.52804154 145.08132072 49.18109955 146.19613718 52 149 C54.16666464 153.36615754 54.42832195 157.75771145 52.9375 162.375 C51.5418298 166.04146333 49.44211664 167.23820999 46 169 C43.35108948 169.38768005 43.35108948 169.38768005 40.47875977 169.40405273 C39.39736221 169.41673691 38.31596466 169.42942108 37.20179749 169.44248962 C36.04336838 169.43955399 34.88493927 169.43661835 33.69140625 169.43359375 C32.49192856 169.4388356 31.29245087 169.44407745 30.05662537 169.44947815 C27.52237725 169.45589579 24.98809934 169.45456473 22.45385742 169.44604492 C18.58002577 169.43753848 14.70767028 169.46629737 10.83398438 169.49804688 C8.36979211 169.49965909 5.90559723 169.49908097 3.44140625 169.49609375 C2.28500137 169.50732773 1.1285965 169.51856171 -0.06285095 169.53013611 C-10.55430576 169.43938893 -10.55430576 169.43938893 -15 165 C-18.95663174 158.28892743 -18.42402863 151.32424778 -18.38818359 143.73046875 C-18.39225306 142.28268031 -18.39759704 140.83489497 -18.40411377 139.38711548 C-18.4177487 135.46975156 -18.41250464 131.55262561 -18.40297651 127.63525772 C-18.39536003 123.52790962 -18.40243104 119.42058135 -18.40713501 115.31323242 C-18.41258678 108.41679237 -18.40541617 101.52044882 -18.39111328 94.62402344 C-18.37478785 86.66062403 -18.38007677 78.69745507 -18.3965925 70.73406124 C-18.41022388 63.88628898 -18.41211896 57.03858593 -18.40427649 50.19080448 C-18.39960904 46.10554797 -18.39894949 42.02039963 -18.40888596 37.93515015 C-18.41757746 34.0936954 -18.41149415 30.25253664 -18.39420319 26.41111374 C-18.39024996 25.00467799 -18.39135241 23.59821717 -18.39799118 22.19179153 C-18.45502986 8.87646166 -18.45502986 8.87646166 -15 3 C-10.81382961 -0.9324631 -5.4363812 -0.80472748 0 0 Z " fill="#4A6045" transform="translate(156,39)"/>
<path d="M0 0 C3.75212276 2.01502889 5.63644095 3.45466142 8 7 C8.99068738 10.71183494 9.12964791 14.22861148 9.14044189 18.05892944 C9.14900711 19.88414375 9.14900711 19.88414375 9.15774536 21.74623108 C9.15899054 23.08651723 9.16011567 24.4268035 9.16113281 25.76708984 C9.16576444 27.18502429 9.17078957 28.60295751 9.17617798 30.02088928 C9.18926875 33.86598144 9.19574016 37.71105617 9.20018864 41.55616713 C9.20312408 43.96018297 9.20722972 46.36419409 9.21169281 48.76820755 C9.22535754 56.2951001 9.23502982 63.8219818 9.2388947 71.34888589 C9.24337634 80.02823206 9.26093339 88.7074208 9.2898953 97.38671911 C9.31152612 104.10280057 9.32159969 110.81883779 9.32293582 117.53495371 C9.32398263 121.54313316 9.32986423 125.55116442 9.34775543 129.5593071 C9.36426095 133.33011798 9.36637972 137.10066965 9.35761642 140.87150383 C9.35684744 142.25214903 9.36117056 143.63280831 9.37107468 145.0134182 C9.47112916 159.83464501 9.47112916 159.83464501 4.4375 165.875 C0.48149299 168.97100548 -4.19819363 168.55201869 -9 168 C-12.63862264 165.87747013 -14.46244978 163.87314216 -16 160 C-16.25447559 157.1663456 -16.25447559 157.1663456 -16.26069641 153.82681274 C-16.26778122 152.55944778 -16.27486603 151.29208282 -16.28216553 149.98631287 C-16.27987175 148.58413661 -16.27736206 147.18196069 -16.2746582 145.77978516 C-16.27900602 144.30126182 -16.28418941 142.82274075 -16.29014587 141.34422302 C-16.30354066 137.32969687 -16.30411394 133.31526484 -16.30158257 129.30072069 C-16.30051303 125.94837002 -16.30539588 122.5960384 -16.310188 119.2436918 C-16.32128517 111.33367067 -16.32171963 103.42369703 -16.31567383 95.51367188 C-16.30963501 87.35662583 -16.32194219 79.19975231 -16.3432439 71.0427357 C-16.36086539 64.0370879 -16.36686033 57.031495 -16.36360615 50.02582586 C-16.36179378 45.84273741 -16.36442472 41.659772 -16.37832069 37.47670364 C-16.39090311 33.54174169 -16.38895115 29.60704839 -16.37590981 25.67209053 C-16.37354524 24.22975511 -16.37627446 22.78740077 -16.38453293 21.34508705 C-16.39501132 19.37246772 -16.38509101 17.39977176 -16.3742218 15.42715454 C-16.37438954 14.32435465 -16.37455729 13.22155476 -16.37473011 12.08533669 C-15.81977807 7.51614447 -14.32201141 4.13315264 -10.8125 1.125 C-7.13988597 -0.34404561 -3.8649105 -0.69583516 0 0 Z " fill="#4E6348" transform="translate(336,40)"/>
<path d="M0 0 C3.79958498 3.24082248 4.92225593 5.68819195 5.8125 10.625 C5.66764462 15.6608547 3.56979402 19.75265334 1.375 24.1875 C0.85425903 25.24094604 0.85425903 25.24094604 0.32299805 26.31567383 C-1.56962772 29.93180825 -3.14055414 32.84895208 -6.875 34.8125 C-10.625 35 -10.625 35 -13.875 34.8125 C-14.75836837 32.3457355 -15.0062406 31.17390628 -14.09765625 28.671875 C-13.52337891 27.62773438 -13.52337891 27.62773438 -12.9375 26.5625 C-12.55722656 25.85609375 -12.17695313 25.1496875 -11.78515625 24.421875 C-11.48480469 23.89078125 -11.18445313 23.3596875 -10.875 22.8125 C-11.6175 22.60625 -12.36 22.4 -13.125 22.1875 C-16.83964284 20.33017858 -18.02384184 18.51481632 -19.875 14.8125 C-20.75694975 10.34039114 -20.22775706 7.49281719 -18.125 3.4375 C-13.33257941 -2.15365735 -6.67310728 -2.75628344 0 0 Z " fill="#4D6148" transform="translate(475.875,41.1875)"/>
<path d="M0 0 C4.33729795 2.25205855 7.13397371 4.4386024 9 9 C9.53256641 14.59194732 9.22883266 18.21242054 6 23 C2.23044144 26.42687142 -1.67127314 26.51843667 -6.5625 26.34375 C-10.29189598 25.81780954 -12.28646803 24.58116456 -15 22 C-17.61472594 17.6140081 -18.63662677 13.92586544 -17.78125 8.9296875 C-16.29814832 5.26642635 -13.27207644 3.06469452 -10 1 C-6.38069302 -0.20643566 -3.80768995 -0.32268559 0 0 Z " fill="#4C5F47" transform="translate(597,182)"/>
<path d="M0 0 C4.8543459 0.09835144 8.0861007 0.9351504 12.3125 3.3125 C14.83006835 7.08885253 14.95022451 9.87615558 14.3125 14.3125 C12.8125 16.3125 12.8125 16.3125 11.3125 17.3125 C11.7765625 18.42625 11.7765625 18.42625 12.25 19.5625 C13.1219925 21.81942176 13.78917007 23.9575153 14.3125 26.3125 C12.0625 26.125 12.0625 26.125 9.3125 25.3125 C8.69375 24.4875 8.075 23.6625 7.4375 22.8125 C5.43277696 19.94103572 5.43277696 19.94103572 1.5625 19.5 C0.49 19.438125 -0.5825 19.37625 -1.6875 19.3125 C-1.6875 21.6225 -1.6875 23.9325 -1.6875 26.3125 C-3.3375 25.9825 -4.9875 25.6525 -6.6875 25.3125 C-6.74536668 21.52089703 -6.78105054 17.72940689 -6.8125 13.9375 C-6.82925781 12.85726562 -6.84601563 11.77703125 -6.86328125 10.6640625 C-6.86972656 9.6328125 -6.87617188 8.6015625 -6.8828125 7.5390625 C-6.89328613 6.58596191 -6.90375977 5.63286133 -6.91455078 4.65087891 C-6.47483518 0.12228102 -3.94601033 0.01812868 0 0 Z M-0.6875 4.3125 C-1.94699049 5.34656673 -1.94699049 5.34656673 -1.78515625 7.59765625 C-1.77355469 8.51417969 -1.76195312 9.43070313 -1.75 10.375 C-1.74097656 11.29410156 -1.73195312 12.21320313 -1.72265625 13.16015625 C-1.71105469 13.87042969 -1.69945312 14.58070313 -1.6875 15.3125 C3.84319113 15.75183257 3.84319113 15.75183257 8.8125 13.8125 C9.3075 13.3175 9.8025 12.8225 10.3125 12.3125 C9.9825 10.3325 9.6525 8.3525 9.3125 6.3125 C5.69276598 4.99623308 3.21682869 4.3125 -0.6875 4.3125 Z " fill="#61484A" transform="translate(235.6875,239.6875)"/>
<path d="M0 0 C1.7421875 0.0390625 1.7421875 0.0390625 4 1 C5.85049113 3.09261147 7.49158196 5.12602086 9.125 7.375 C9.78822266 8.26058594 9.78822266 8.26058594 10.46484375 9.1640625 C12.38059572 11.73383251 14.22188032 14.33282049 16 17 C16.33 11.39 16.66 5.78 17 0 C18.32 0.33 19.64 0.66 21 1 C21 9.25 21 17.5 21 26 C15.375 24.875 15.375 24.875 13.10546875 21.83984375 C12.62529297 21.21142578 12.14511719 20.58300781 11.65039062 19.93554688 C10.92625977 18.94651367 10.92625977 18.94651367 10.1875 17.9375 C9.68541016 17.27427734 9.18332031 16.61105469 8.66601562 15.92773438 C7.43201314 14.29415013 6.21437259 12.648229 5 11 C4.34 15.95 3.68 20.9 3 26 C1.68 26 0.36 26 -1 26 C-1.02886751 21.85418113 -1.04675327 17.70838784 -1.0625 13.5625 C-1.07087891 12.37849609 -1.07925781 11.19449219 -1.08789062 9.97460938 C-1.09111328 8.84990234 -1.09433594 7.72519531 -1.09765625 6.56640625 C-1.10289307 5.52427979 -1.10812988 4.48215332 -1.11352539 3.40844727 C-1 1 -1 1 0 0 Z " fill="#5C4245" transform="translate(488,240)"/>
<path d="M0 0 C3.22941102 1.62490365 4.93624361 3.06840323 7.04296875 6.05859375 C8.66889413 11.03201257 9.01274772 15.15977514 6.91796875 20.12109375 C4.15213763 23.45916579 1.45457177 24.8793337 -2.64453125 26.18359375 C-7.20515588 26.35900239 -10.84154302 25.40045864 -14.89453125 23.30859375 C-18.35789755 19.84522745 -19.16088198 17.00404249 -19.39453125 12.24609375 C-19.24274975 8.87654452 -18.93648689 7.38443664 -17.26953125 4.37109375 C-12.12493782 -0.09657949 -6.75003657 -2.46341541 0 0 Z M-12.89453125 6.30859375 C-14.44444267 9.94751621 -15.1748298 12.18739954 -14.20703125 16.05859375 C-12.14058581 19.60107164 -11.0263297 20.96413335 -7.01953125 22.18359375 C-3.23082011 22.3351422 -1.851262 21.62603137 1.10546875 19.30859375 C3.09580516 17.65485879 3.09580516 17.65485879 4.10546875 15.30859375 C4.03688957 11.46815978 3.65993365 9.11896553 1.48046875 5.93359375 C-3.44595494 2.56288281 -8.4048848 2.20377414 -12.89453125 6.30859375 Z " fill="#5C3C41" transform="translate(289.89453125,240.69140625)"/>
<path d="M0 0 C3.32837886 1.81164925 5.50185694 4.11692822 7.375 7.4375 C8.52054152 12.13422023 8.61955616 14.87152271 6.25 19.1875 C3.58106647 22.52366691 1.72365459 24.71098843 -2.5859375 25.43359375 C-8.56054441 25.44196155 -12.35147386 25.17175423 -17 21 C-19.88894066 16.66658901 -20.24775897 13.56914011 -19.4375 8.4375 C-17.60375848 4.05246592 -15.87429406 2.68828568 -12 0 C-7.80109914 -1.39963362 -4.27420317 -1.06490386 0 0 Z M-14 7 C-15.55024464 10.10048928 -15.28992015 12.57894218 -15 16 C-13.59121904 18.9901643 -13.59121904 18.9901643 -11 21 C-7.01997551 22.15782531 -4.97164286 22.45343333 -1.1875 20.6875 C1.98929798 18.42344469 1.98929798 18.42344469 3.3359375 14.9765625 C3.43641875 9.98012351 3.43641875 9.98012351 1.4375 5.5 C-4.60246926 1.78309584 -8.68775807 2.57313172 -14 7 Z " fill="#54343D" transform="translate(374,241)"/>
<path d="M0 0 C3.31718943 1.04254525 4.0461827 2.08034797 5.81640625 5.16015625 C6.41275294 6.45443708 6.99416989 7.75567441 7.5625 9.0625 C7.86551025 9.73482666 8.16852051 10.40715332 8.48071289 11.09985352 C10.64502468 15.97731609 12.47398005 20.88334486 14 26 C12.35 25.67 10.7 25.34 9 25 C8.505 22.525 8.505 22.525 8 20 C5.89516445 20.0330288 3.7908757 20.10244546 1.6875 20.1875 C0.51574219 20.22230469 -0.65601563 20.25710938 -1.86328125 20.29296875 C-5.20223058 20.66317078 -5.20223058 20.66317078 -6.66796875 23.55078125 C-7.32732422 24.76314453 -7.32732422 24.76314453 -8 26 C-9.32 26 -10.64 26 -12 26 C-9.74809594 18.11833578 -5.92638464 5.92638464 0 0 Z M1 7 C-0.98 11.455 -0.98 11.455 -3 16 C-0.36 16 2.28 16 5 16 C4.01 13.03 3.02 10.06 2 7 C1.67 7 1.34 7 1 7 Z " fill="#55383D" transform="translate(542,240)"/>
<path d="M0 0 C2.0625 0.4375 2.0625 0.4375 4 1 C4.06058594 2.27617187 4.12117188 3.55234375 4.18359375 4.8671875 C4.26799568 6.53647016 4.35264386 8.20574037 4.4375 9.875 C4.47681641 10.71675781 4.51613281 11.55851563 4.55664062 12.42578125 C4.59853516 13.23144531 4.64042969 14.03710938 4.68359375 14.8671875 C4.72025146 15.61081543 4.75690918 16.35444336 4.79467773 17.12060547 C4.89955865 19.08864312 4.89955865 19.08864312 6 21 C8.83514145 21.91950534 10.42022079 22.20936472 13.25 21.1875 C15.15074924 20.10600632 15.15074924 20.10600632 16 18 C16.23274209 15.12089412 16.41972757 12.25853505 16.5625 9.375 C16.60568359 8.57320312 16.64886719 7.77140625 16.69335938 6.9453125 C16.79951457 4.9637489 16.90026855 2.98189729 17 1 C18.32 1 19.64 1 21 1 C21.08120751 3.89640118 21.14059421 6.79050912 21.1875 9.6875 C21.21263672 10.50412109 21.23777344 11.32074219 21.26367188 12.16210938 C21.32212368 16.97464115 21.10044334 20.07377272 18 24 C15.43411548 26.56588452 14.25533131 26.3554254 10.6875 26.4375 C6.46917063 26.37668529 5.34583955 26.26283806 1.875 23.625 C-0.44846031 20.37215556 -1.1268213 18.81844702 -1.1328125 14.90234375 C-1.13410156 14.10119141 -1.13539063 13.30003906 -1.13671875 12.47460938 C-1.13285156 11.63736328 -1.12898438 10.80011719 -1.125 9.9375 C-1.12886719 9.09638672 -1.13273437 8.25527344 -1.13671875 7.38867188 C-1.12662682 1.12662682 -1.12662682 1.12662682 0 0 Z " fill="#5E424A" transform="translate(442,240)"/>
<path d="M0 0 C0.66 0.66 1.32 1.32 2 2 C0.86111328 1.98259766 0.86111328 1.98259766 -0.30078125 1.96484375 C-1.29464844 1.95582031 -2.28851563 1.94679687 -3.3125 1.9375 C-4.29863281 1.92589844 -5.28476563 1.91429687 -6.30078125 1.90234375 C-9.09963849 1.87670138 -9.09963849 1.87670138 -12 3 C-12 4.65 -12 6.3 -12 8 C-12.66 8 -13.32 8 -14 8 C-14.33 8.66 -14.66 9.32 -15 10 C-14.34 10.33 -13.68 10.66 -13 11 C-13.66 12.32 -14.32 13.64 -15 15 C-14.34 15.33 -13.68 15.66 -13 16 C-13.66 16 -14.32 16 -15 16 C-16.31622959 18.63245919 -16.13975267 20.60621263 -16.15821838 23.55545044 C-16.1680072 24.73618134 -16.17779602 25.91691223 -16.18788147 27.13342285 C-16.19363693 28.43533569 -16.1993924 29.73724854 -16.20532227 31.07861328 C-16.21489856 32.45820409 -16.22490849 33.83779195 -16.23532104 35.21737671 C-16.26240321 38.9691859 -16.2833948 42.72100772 -16.30332303 46.47286081 C-16.32516219 50.39134438 -16.35256099 54.30978889 -16.37937927 58.22824097 C-16.4293342 65.65133976 -16.47426262 73.0744602 -16.51740164 80.49760139 C-16.56675011 88.94733136 -16.62167709 97.39702216 -16.67708123 105.84671426 C-16.79094425 123.23110664 -16.89777386 140.61553537 -17 158 C-17.33 158 -17.66 158 -18 158 C-18.07011582 138.82411648 -18.12300079 119.64825901 -18.15543652 100.47227383 C-18.17089804 91.56830495 -18.19197388 82.66441577 -18.22631836 73.76049805 C-18.25624261 65.99883042 -18.2755802 58.23722053 -18.28226548 50.47549683 C-18.28617262 46.3666275 -18.29533999 42.25792332 -18.31719017 38.14910698 C-18.33760318 34.27906581 -18.34382412 30.4092573 -18.33932304 26.5391674 C-18.3401461 25.12143183 -18.34608315 23.7036882 -18.35761642 22.2859993 C-18.46144037 8.86151955 -18.46144037 8.86151955 -15 3 C-10.8666311 -0.88286169 -5.39114754 -0.73472276 0 0 Z " fill="#5C6353" transform="translate(156,39)"/>
<path d="M0 0 C1.18613892 0.00785522 1.18613892 0.00785522 2.39624023 0.01586914 C3.67724609 0.02070313 3.67724609 0.02070313 4.98413086 0.02563477 C5.88196289 0.03401367 6.77979492 0.04239258 7.70483398 0.05102539 C8.6065332 0.05553711 9.50823242 0.06004883 10.43725586 0.06469727 C12.67234712 0.07652315 14.90730835 0.09300319 17.14233398 0.11352539 C17.70483398 2.05102539 17.70483398 2.05102539 18.14233398 4.11352539 C17.81233398 4.44352539 17.48233398 4.77352539 17.14233398 5.11352539 C14.83233398 5.11352539 12.52233398 5.11352539 10.14233398 5.11352539 C10.14233398 11.71352539 10.14233398 18.31352539 10.14233398 25.11352539 C8.49233398 25.44352539 6.84233398 25.77352539 5.14233398 26.11352539 C5.14233398 19.18352539 5.14233398 12.25352539 5.14233398 5.11352539 C2.83233398 5.11352539 0.52233398 5.11352539 -1.85766602 5.11352539 C-2.42016602 3.17602539 -2.42016602 3.17602539 -2.85766602 1.11352539 C-1.85766602 0.11352539 -1.85766602 0.11352539 0 0 Z " fill="#6E4B53" transform="translate(318.857666015625,239.886474609375)"/>
<path d="M0 0 C6.27 0 12.54 0 19 0 C19.33 1.32 19.66 2.64 20 4 C17.10765685 4.82638376 15.11257569 5 12 5 C12.01160156 6.09699219 12.02320313 7.19398438 12.03515625 8.32421875 C12.04453964 9.77864412 12.05363925 11.23307135 12.0625 12.6875 C12.07087891 13.40873047 12.07925781 14.12996094 12.08789062 14.87304688 C12.10543632 18.71555382 11.93524221 22.26639526 11 26 C9.68 26 8.36 26 7 26 C7 19.07 7 12.14 7 5 C4.69 5 2.38 5 0 5 C-0.66 4.67 -1.32 4.34 -2 4 C-1.34 2.68 -0.68 1.36 0 0 Z " fill="#614147" transform="translate(401,240)"/>
<path d="M0 0 C7.72286742 -0.10151824 15.44556239 -0.17151568 23.16894531 -0.21972656 C25.79563833 -0.23982715 28.42228669 -0.26711204 31.04882812 -0.30175781 C34.82693512 -0.35034164 38.60444984 -0.37298509 42.3828125 -0.390625 C43.55490265 -0.41127014 44.7269928 -0.43191528 45.93460083 -0.45318604 C52.23493687 -0.45491539 56.27543627 -0.36808762 61 4 C63.12646063 7.67297744 63.19495279 10.80851493 63 15 C62.67 15 62.34 15 62 15 C61.505 11.535 61.505 11.535 61 8 C60.01 8.33 59.02 8.66 58 9 C58 7.68 58 6.36 58 5 C57.236875 5.165 56.47375 5.33 55.6875 5.5 C53 6 53 6 50 6 C49.505 4.02 49.505 4.02 49 2 C48.36835938 2.00523682 47.73671875 2.01047363 47.0859375 2.01586914 C31.36025797 2.12775033 15.70570217 1.79812732 0 1 C0 0.67 0 0.34 0 0 Z " fill="#5A6855" transform="translate(384,40)"/>
<path d="M0 0 C4.81819969 0.07692336 8.06636482 1.09712512 12.3125 3.3125 C12.3125 4.3025 12.3125 5.2925 12.3125 6.3125 C10.9925 5.6525 9.6725 4.9925 8.3125 4.3125 C8.6425 4.9725 8.9725 5.6325 9.3125 6.3125 C6.0125 5.9825 2.7125 5.6525 -0.6875 5.3125 C-1.02189553 7.12480433 -1.35498824 8.9373491 -1.6875 10.75 C-1.873125 11.75933594 -2.05875 12.76867187 -2.25 13.80859375 C-2.71618656 16.05303928 -2.71618656 16.05303928 -2.6875 17.3125 C-2.3575 17.3125 -2.0275 17.3125 -1.6875 17.3125 C-1.6875 20.2825 -1.6875 23.2525 -1.6875 26.3125 C-3.3375 25.9825 -4.9875 25.6525 -6.6875 25.3125 C-6.74536668 21.52089703 -6.78105054 17.72940689 -6.8125 13.9375 C-6.82925781 12.85726562 -6.84601563 11.77703125 -6.86328125 10.6640625 C-6.86972656 9.6328125 -6.87617188 8.6015625 -6.8828125 7.5390625 C-6.89328613 6.58596191 -6.90375977 5.63286133 -6.91455078 4.65087891 C-6.47483518 0.12228102 -3.94601033 0.01812868 0 0 Z " fill="#65474B" transform="translate(235.6875,239.6875)"/>
<path d="M0 0 C0.7734375 0.495 0.7734375 0.495 1.5625 1 C-1.91075181 2.1577506 -4.79817448 2.06866652 -8.4375 2 C-8.4375 2.66 -8.4375 3.32 -8.4375 4 C-9.05625 4.185625 -9.675 4.37125 -10.3125 4.5625 C-12.76868326 5.94000919 -12.76868326 5.94000919 -13.8125 9.3125 C-14.4702116 13.19299845 -14.27490883 14.61529952 -12.4375 18 C-12.1075 18.66 -11.7775 19.32 -11.4375 20 C-12.0975 20 -12.7575 20 -13.4375 20 C-13.7675 20.99 -14.0975 21.98 -14.4375 23 C-18.24340716 19.31686404 -19.59871199 17.49850524 -19.75 12.1875 C-19.7045513 8.6829004 -19.54386936 7.19228307 -17.8125 4.0625 C-12.49065186 -0.55910497 -6.85532003 -2.81243899 0 0 Z " fill="#61474B" transform="translate(290.4375,241)"/>
<path d="M0 0 C1.32 0.33 2.64 0.66 4 1 C4 9.25 4 17.5 4 26 C-1 25 -1 25 -2.58203125 23.15234375 C-2.98808594 22.42144531 -3.39414062 21.69054687 -3.8125 20.9375 C-4.23144531 20.20402344 -4.65039062 19.47054688 -5.08203125 18.71484375 C-5.38496094 18.14894531 -5.68789063 17.58304687 -6 17 C-5.01 16.67 -4.02 16.34 -3 16 C-1.68 17.32 -0.36 18.64 1 20 C0.67 19.34 0.34 18.68 0 18 C-0.08308638 16.62451844 -0.10736016 15.24514204 -0.09765625 13.8671875 C-0.09443359 13.06152344 -0.09121094 12.25585938 -0.08789062 11.42578125 C-0.07951172 10.58402344 -0.07113281 9.74226562 -0.0625 8.875 C-0.05798828 8.02550781 -0.05347656 7.17601562 -0.04882812 6.30078125 C-0.03702874 4.20049091 -0.01909306 2.1002367 0 0 Z " fill="#4D2F33" transform="translate(505,240)"/>
<path d="M0 0 C2.37507418 1.46269812 4.00800062 3.00800062 6 5 C5.67 5.66 5.34 6.32 5 7 C3.02 5.35 1.04 3.7 -1 2 C-0.67 2.33 -0.34 2.66 0 3 C1 4 2 5 3 6 C2.67 6.66 2.34 7.32 2 8 C1.649375 7.525625 1.29875 7.05125 0.9375 6.5625 C-1.95605843 4.22898513 -4.3333943 4.12643468 -8 4 C-10.94572012 4.6839349 -10.94572012 4.6839349 -13 7 C-14.00541715 9.95864943 -14.56594983 12.90982191 -15 16 C-15.66 15.01 -16.32 14.02 -17 13 C-17.33 14.65 -17.66 16.3 -18 18 C-18.33 18 -18.66 18 -19 18 C-20.20793377 13.04747155 -19.97356936 9.71940499 -18 5 C-12.75122989 -0.83363306 -7.37176176 -1.89308848 0 0 Z " fill="#64474F" transform="translate(374,241)"/>
<path d="M0 0 C0.66 0.33 1.32 0.66 2 1 C0.66666667 4.33333333 -0.66666667 7.66666667 -2 11 C-0.906875 11.268125 0.18625 11.53625 1.3125 11.8125 C4.7850009 12.930763 5.71827034 13.43744207 8 16 C7.09636719 16.01417969 6.19273437 16.02835937 5.26171875 16.04296875 C3.49248047 16.11451172 3.49248047 16.11451172 1.6875 16.1875 C0.51574219 16.22230469 -0.65601563 16.25710938 -1.86328125 16.29296875 C-5.20223058 16.66317078 -5.20223058 16.66317078 -6.66796875 19.55078125 C-7.32732422 20.76314453 -7.32732422 20.76314453 -8 22 C-9.32 22 -10.64 22 -12 22 C-10.06375702 15.79522136 -7.74390859 9.89174281 -5 4 C-3.875 7.75 -3.875 7.75 -5 10 C-4.34 10 -3.68 10 -3 10 C-2.87625 9.278125 -2.7525 8.55625 -2.625 7.8125 C-2.0095069 5.04278106 -1.11555626 2.6029646 0 0 Z " fill="#614349" transform="translate(542,244)"/>
<path d="M0 0 C2.0625 0.4375 2.0625 0.4375 4 1 C4.06058594 2.27617187 4.12117188 3.55234375 4.18359375 4.8671875 C4.26799568 6.53647016 4.35264386 8.20574037 4.4375 9.875 C4.47681641 10.71675781 4.51613281 11.55851563 4.55664062 12.42578125 C4.59853516 13.23144531 4.64042969 14.03710938 4.68359375 14.8671875 C4.72025146 15.61081543 4.75690918 16.35444336 4.79467773 17.12060547 C4.89955865 19.08864312 4.89955865 19.08864312 6 21 C8.01669827 22.13350534 8.01669827 22.13350534 10 23 C8.35 23 6.7 23 5 23 C4.01 21.02 3.02 19.04 2 17 C1.34 18.32 0.68 19.64 0 21 C-1.13945516 18.72108967 -1.12894214 17.43217896 -1.1328125 14.90234375 C-1.13410156 14.10119141 -1.13539063 13.30003906 -1.13671875 12.47460938 C-1.13285156 11.63736328 -1.12898438 10.80011719 -1.125 9.9375 C-1.12886719 9.09638672 -1.13273437 8.25527344 -1.13671875 7.38867188 C-1.12662682 1.12662682 -1.12662682 1.12662682 0 0 Z " fill="#694E53" transform="translate(442,240)"/>
<path d="M0 0 C2 3 2 3 3 6 C2.01 7.485 2.01 7.485 1 9 C1 9.94875 1 10.8975 1 11.875 C1 15.12135454 0.36844265 17.09205937 -1 20 C-1.66 20 -2.32 20 -3 20 C-3.33 21.98 -3.66 23.96 -4 26 C-4.33 26 -4.66 26 -5 26 C-4.7676674 16.63699634 -4.39355423 8.50101655 0 0 Z " fill="#505D4A" transform="translate(493,64)"/>
<path d="M0 0 C1.32 0.33 2.64 0.66 4 1 C3.67 7.93 3.34 14.86 3 22 C3.66 22 4.32 22 5 22 C5 15.07 5 8.14 5 1 C6.98 1 8.96 1 11 1 C9.68 1.33 8.36 1.66 7 2 C7.01160156 3.09699219 7.02320313 4.19398438 7.03515625 5.32421875 C7.04453964 6.77864412 7.05363925 8.23307135 7.0625 9.6875 C7.07087891 10.40873047 7.07925781 11.12996094 7.08789062 11.87304688 C7.10543632 15.71555382 6.93524221 19.26639526 6 23 C4.68 23 3.36 23 2 23 C2 16.07 2 9.14 2 2 C0.35 2 -1.3 2 -3 2 C-2.01 1.34 -1.02 0.68 0 0 Z " fill="#8B7476" transform="translate(406,243)"/>
<path d="M0 0 C0.33 0 0.66 0 1 0 C1 2.64 1 5.28 1 8 C2.10408203 7.87818359 2.10408203 7.87818359 3.23046875 7.75390625 C11.11910192 7.24328138 11.11910192 7.24328138 13.7734375 9.5234375 C15.0625 11.4375 15.0625 11.4375 16.09765625 13.37109375 C16.90299882 15.18720459 16.90299882 15.18720459 19 16 C19 16.66 19 17.32 19 18 C16.75 17.8125 16.75 17.8125 14 17 C13.38125 16.175 12.7625 15.35 12.125 14.5 C10.12969524 11.63112952 10.12969524 11.63112952 6.3125 11.25 C5.219375 11.1675 4.12625 11.085 3 11 C2.67 10.67 2.34 10.34 2 10 C1.67 12.31 1.34 14.62 1 17 C0.67 17 0.34 17 0 17 C0 11.39 0 5.78 0 0 Z " fill="#503438" transform="translate(231,248)"/>
<path d="M0 0 C0.33 0 0.66 0 1 0 C1.03738281 1.01320312 1.07476562 2.02640625 1.11328125 3.0703125 C1.17898388 4.42190939 1.24542971 5.77347029 1.3125 7.125 C1.33505859 7.79015625 1.35761719 8.4553125 1.38085938 9.140625 C1.62989877 13.75917371 2.68400178 17.01375105 5 21 C9.5067218 21.17673419 12.96625544 21.13551182 17 19 C17.33 18.34 17.66 17.68 18 17 C17.25 21.75 17.25 21.75 15 24 C12.5390625 24.30078125 12.5390625 24.30078125 9.625 24.3125 C8.66851562 24.32925781 7.71203125 24.34601563 6.7265625 24.36328125 C3.51867037 23.93586869 2.31783408 23.22871009 0 21 C-0.45410156 18.73168945 -0.45410156 18.73168945 -0.390625 16.11328125 C-0.37773437 15.17548828 -0.36484375 14.23769531 -0.3515625 13.27148438 C-0.31804687 12.29501953 -0.28453125 11.31855469 -0.25 10.3125 C-0.23195313 9.32443359 -0.21390625 8.33636719 -0.1953125 7.31835938 C-0.14815447 4.87793158 -0.08236042 2.43945231 0 0 Z " fill="#4C2E35" transform="translate(443,242)"/>
<path d="M0 0 C1.16660156 0.04833984 2.33320313 0.09667969 3.53515625 0.14648438 C5.37013672 0.2305957 5.37013672 0.2305957 7.2421875 0.31640625 C8.47324219 0.36861328 9.70429688 0.42082031 10.97265625 0.47460938 C14.02107338 0.60458065 17.069187 0.73955644 20.1171875 0.87890625 C20.1171875 1.20890625 20.1171875 1.53890625 20.1171875 1.87890625 C19.38081055 1.89348877 18.64443359 1.90807129 17.88574219 1.9230957 C14.54569746 1.99761736 11.20664769 2.09426498 7.8671875 2.19140625 C6.70832031 2.21396484 5.54945313 2.23652344 4.35546875 2.25976562 C2.68291016 2.31293945 2.68291016 2.31293945 0.9765625 2.3671875 C-0.56306152 2.40646362 -0.56306152 2.40646362 -2.13378906 2.4465332 C-5.24107336 2.93525438 -6.65531214 3.68304096 -8.8828125 5.87890625 C-9.50905074 8.73623969 -9.50905074 8.73623969 -9.5078125 11.87890625 C-9.68976231 17.58933096 -9.68976231 17.58933096 -11.8828125 20.87890625 C-11.9909991 18.29444852 -12.07018487 15.71453273 -12.1328125 13.12890625 C-12.16632813 12.39929688 -12.19984375 11.6696875 -12.234375 10.91796875 C-12.29989937 7.31412821 -12.22657526 5.32494553 -9.9921875 2.42578125 C-6.38838016 -0.2170108 -4.44168879 -0.19405436 0 0 Z " fill="#535F4F" transform="translate(263.8828125,134.12109375)"/>
<path d="M0 0 C0.66 0.66 1.32 1.32 2 2 C-0.47113451 1.51279586 -2.93638516 1.01421735 -5.39453125 0.46484375 C-11.68987196 -0.9081304 -17.73795007 -2.08734998 -24 0 C-24.99 -0.33 -25.98 -0.66 -27 -1 C-27 -0.01 -27 0.98 -27 2 C-27.598125 1.79375 -28.19625 1.5875 -28.8125 1.375 C-31.28450846 0.69328085 -31.28450846 0.69328085 -34 3 C-34.99 2.34 -35.98 1.68 -37 1 C-24.83208905 -3.52759477 -12.24437182 -5.51502698 0 0 Z " fill="#616E5D" transform="translate(549,44)"/>
<path d="M0 0 C0.66 0.66 1.32 1.32 2 2 C4.26267725 2.33085773 4.26267725 2.33085773 6.90869141 2.31884766 C7.92959869 2.33871735 8.95050598 2.35858704 10.00234985 2.37905884 C11.10759003 2.39061005 12.2128302 2.40216125 13.3515625 2.4140625 C15.04531509 2.44311172 15.04531509 2.44311172 16.77328491 2.4727478 C20.39044572 2.53267069 24.00763813 2.57898002 27.625 2.625 C30.07293078 2.66316805 32.52084796 2.70221908 34.96875 2.7421875 C40.97904624 2.83838259 46.98942393 2.92339265 53 3 C53 3.33 53 3.66 53 4 C34.85 4 16.7 4 -2 4 C-1.34 2.68 -0.68 1.36 0 0 Z " fill="#555F4F" transform="translate(149,204)"/>
<path d="M0 0 C1.22991531 2.90707256 1.00681965 3.98181428 -0.125 7 C-2.1100712 10.17611392 -3.87059752 11.96588839 -7 14 C-7.99 14 -8.98 14 -10 14 C-10.33 13.01 -10.66 12.02 -11 11 C-10.34 10.34 -9.68 9.68 -9 9 C-8.01 9 -7.02 9 -6 9 C-6 8.34 -6 7.68 -6 7 C-5.34 6.67 -4.68 6.34 -4 6 C-3.3162955 4.67532254 -2.65035814 3.34136367 -2 2 C-1.34 1.34 -0.68 0.68 0 0 Z " fill="#4F5B4A" transform="translate(446,194)"/>
<path d="M0 0 C0.66 0 1.32 0 2 0 C2 0.66 2 1.32 2 2 C3.4370809 2.05422947 4.87475462 2.09289723 6.3125 2.125 C7.51326172 2.15980469 7.51326172 2.15980469 8.73828125 2.1953125 C11.28388576 2.15817322 11.28388576 2.15817322 14 0 C14.99 0 15.98 0 17 0 C16.5 1.875 16.5 1.875 15 4 C9.21035438 6.15885091 5.71099578 6.33101869 0 4 C-0.33 3.34 -0.66 2.68 -1 2 C-0.67 1.34 -0.34 0.68 0 0 Z " fill="#4A2F36" transform="translate(277,261)"/>
<path d="M0 0 C1.3125 3.625 1.3125 3.625 2 7 C-0.475 6.505 -0.475 6.505 -3 6 C-3.33 4.02 -3.66 2.04 -4 0 C-8.29 0 -12.58 0 -17 0 C-17 -0.33 -17 -0.66 -17 -1 C-15.10590022 -1.22354607 -13.2095652 -1.42819951 -11.3125 -1.625 C-9.72888672 -1.79902344 -9.72888672 -1.79902344 -8.11328125 -1.9765625 C-4.79583447 -2.00153701 -2.8734701 -1.64198292 0 0 Z " fill="#3E2126" transform="translate(554,259)"/>
<path d="M0 0 C1.64627294 0.71226503 3.25404005 1.51236885 4.8515625 2.328125 C4.8515625 2.988125 4.8515625 3.648125 4.8515625 4.328125 C2.8715625 5.318125 2.8715625 5.318125 0.8515625 6.328125 C0.5215625 5.338125 0.1915625 4.348125 -0.1484375 3.328125 C-0.83550781 3.19535156 -1.52257812 3.06257812 -2.23046875 2.92578125 C-3.13152344 2.74917969 -4.03257812 2.57257813 -4.9609375 2.390625 C-5.85425781 2.21660156 -6.74757813 2.04257813 -7.66796875 1.86328125 C-10.1484375 1.328125 -10.1484375 1.328125 -13.1484375 0.328125 C-9.20365798 -1.64426476 -4.14728113 -1.29696792 0 0 Z " fill="#50363A" transform="translate(291.1484375,242.671875)"/>
<path d="M0 0 C0.66 0 1.32 0 2 0 C1.08004839 3.09438268 0.36216714 4.71026629 -2.1875 6.75 C-6.31697448 8.58532199 -10.10251119 9.72980339 -14.4375 8.0625 C-14.953125 7.711875 -15.46875 7.36125 -16 7 C-13.69 7 -11.38 7 -9 7 C-8.67 6.01 -8.34 5.02 -8 4 C-7.34 3.67 -6.68 3.34 -6 3 C-5.34 2.34 -4.68 1.68 -4 1 C-3.01 1.33 -2.02 1.66 -1 2 C-0.67 1.34 -0.34 0.68 0 0 Z " fill="#5F695B" transform="translate(568,79)"/>
<path d="M0 0 C12.85194909 -0.68645425 12.85194909 -0.68645425 16.8125 1.5 C19.19743198 4.22563654 19.33228269 4.80820563 19.375 8.25 C19.25125 9.4875 19.1275 10.725 19 12 C18.01 12 17.02 12 16 12 C16 9.36 16 6.72 16 4 C12.59648662 1.96780512 9.6767073 1.63108961 5.75 1.375 C4.67234375 1.30023438 3.5946875 1.22546875 2.484375 1.1484375 C1.25460938 1.07496094 1.25460938 1.07496094 0 1 C0 0.67 0 0.34 0 0 Z " fill="#4C3137" transform="translate(231,242)"/>
<path d="M0 0 C1.485 0.99 1.485 0.99 3 2 C3.99 2 4.98 2 6 2 C7.2684375 2.7115625 7.2684375 2.7115625 8.5625 3.4375 C13.01542378 5.46155626 17.16133658 5.7226853 22 6 C22 6.33 22 6.66 22 7 C19.39576408 7.02697137 16.79180756 7.04682489 14.1875 7.0625 C13.44951172 7.07087891 12.71152344 7.07925781 11.95117188 7.08789062 C8.70077932 7.10259828 6.10595105 7.03531702 3 6 C0.8614515 3.8614515 0.57344937 2.86724686 0 0 Z " fill="#546452" transform="translate(506,176)"/>
<path d="M0 0 C0.33 0 0.66 0 1 0 C0.5580804 4.64015578 0.03716881 9.09374057 -1.0625 13.625 C-1.79255603 16.63451157 -1.97936655 18.62932011 -1.875 21.8125 C-2 25 -2 25 -4 27.4375 C-4.99 28.2109375 -4.99 28.2109375 -6 29 C-5.33425862 22.51093459 -3.99578944 16.32918678 -2.4375 10 C-2.20353516 9.03449219 -1.96957031 8.06898438 -1.72851562 7.07421875 C-1.15626866 4.71515983 -0.58002171 2.35715708 0 0 Z " fill="#626C57" transform="translate(34,125)"/>
<path d="M0 0 C2.83336529 0.30630976 4.56126519 0.62394159 6.75 2.5 C8.5955287 6.1910574 8.74722936 9.92080486 9 14 C8.67 14 8.34 14 8 14 C7.67 11.69 7.34 9.38 7 7 C6.01 7.33 5.02 7.66 4 8 C4 6.68 4 5.36 4 4 C2.35 4.33 0.7 4.66 -1 5 C-1.33 4.34 -1.66 3.68 -2 3 C-1.34 3 -0.68 3 0 3 C0 2.01 0 1.02 0 0 Z " fill="#5E6D5A" transform="translate(438,41)"/>
<path d="M0 0 C0.33 0 0.66 0 1 0 C1.02505615 0.70608398 1.0501123 1.41216797 1.07592773 2.13964844 C1.19207369 5.34327509 1.31471603 8.54662118 1.4375 11.75 C1.47681641 12.86117187 1.51613281 13.97234375 1.55664062 15.1171875 C1.61948242 16.72207031 1.61948242 16.72207031 1.68359375 18.359375 C1.72025146 19.34389648 1.75690918 20.32841797 1.79467773 21.34277344 C1.97598742 23.68923551 2.34331819 25.74718412 3 28 C2.01 27.67 1.02 27.34 0 27 C0 26.34 0 25.68 0 25 C-0.99 25.33 -1.98 25.66 -3 26 C-3.66 25.01 -4.32 24.02 -5 23 C-4.34 22.67 -3.68 22.34 -3 22 C-3 22.66 -3 23.32 -3 24 C-2.01 24 -1.02 24 0 24 C0 16.08 0 8.16 0 0 Z " fill="#ABB3A9" transform="translate(253,83)"/>
<path d="M0 0 C4.28477792 2.30718811 7.72291137 4.32966073 11 8 C10.67 8.66 10.34 9.32 10 10 C8.02 9.34 6.04 8.68 4 8 C4 7.34 4 6.68 4 6 C3.01 5.67 2.02 5.34 1 5 C0.67 3.35 0.34 1.7 0 0 Z " fill="#5D6957" transform="translate(552,46)"/>
<path d="M0 0 C2.23789447 1.98923953 2.38028058 3.58141547 2.6875 6.5 C1.22734709 6.21758359 -0.23059793 5.92373386 -1.6875 5.625 C-2.49960937 5.46257812 -3.31171875 5.30015625 -4.1484375 5.1328125 C-6.3125 4.5 -6.3125 4.5 -8.3125 2.5 C-2.98829909 -0.64611872 -2.98829909 -0.64611872 0 0 Z " fill="#596455" transform="translate(510.3125,201.5)"/>
<path d="M0 0 C0.33 0.99 0.66 1.98 1 3 C3.01508358 3.73323796 3.01508358 3.73323796 5 4 C4.34 5.98 3.68 7.96 3 10 C2.34 10 1.68 10 1 10 C0.67 11.98 0.34 13.96 0 16 C-0.33 16 -0.66 16 -1 16 C-0.67 10.72 -0.34 5.44 0 0 Z " fill="#666D5B" transform="translate(489,74)"/>
<path d="M0 0 C2.475 0.99 2.475 0.99 5 2 C5 2.99 5 3.98 5 5 C8.3 5.66 11.6 6.32 15 7 C15 7.33 15 7.66 15 8 C6.05635068 8.62518714 6.05635068 8.62518714 1.9375 6.1875 C0 4 0 4 -1 1 C-0.67 0.67 -0.34 0.34 0 0 Z " fill="#576453" transform="translate(322,200)"/>
<path d="M0 0 C4.95 0 9.9 0 15 0 C15 0.99 15 1.98 15 3 C4.44191344 3.3690205 4.44191344 3.3690205 0 1 C0 0.67 0 0.34 0 0 Z " fill="#5C745D" transform="translate(59,150)"/>
<path d="M0 0 C0.66 0.33 1.32 0.66 2 1 C1.34 1.66 0.68 2.32 0 3 C-0.268125 3.804375 -0.53625 4.60875 -0.8125 5.4375 C-2.29833787 8.64378173 -3.98296241 9.29808136 -7 11 C-7.33 11.99 -7.66 12.98 -8 14 C-8.66 14 -9.32 14 -10 14 C-8.62815653 9.93501119 -6.77931541 7.32603439 -3.875 4.1875 C-3.15054687 3.39730469 -2.42609375 2.60710938 -1.6796875 1.79296875 C-1.12539063 1.20128906 -0.57109375 0.60960937 0 0 Z " fill="#5A6858" transform="translate(504,50)"/>
<path d="M0 0 C0.33 0.99 0.66 1.98 1 3 C-2.71138817 5.94351476 -5.439742 7.1403321 -10.1875 7.0625 C-12.0746875 7.0315625 -12.0746875 7.0315625 -14 7 C-12 5 -12 5 -8.875 4.875 C-7.92625 4.91625 -6.9775 4.9575 -6 5 C-5.67 4.01 -5.34 3.02 -5 2 C-4.34 2 -3.68 2 -3 2 C-2.01 1.34 -1.02 0.68 0 0 Z " fill="#495243" transform="translate(192,259)"/>
<path d="M0 0 C0 0.99 0 1.98 0 3 C-2.64458379 4.32229189 -4.67761301 4.09677194 -7.625 4.0625 C-8.62789063 4.05347656 -9.63078125 4.04445313 -10.6640625 4.03515625 C-11.43492187 4.02355469 -12.20578125 4.01195312 -13 4 C-13 3.34 -13 2.68 -13 2 C-11.20873548 1.66451233 -9.41697413 1.33167645 -7.625 1 C-6.62726563 0.814375 -5.62953125 0.62875 -4.6015625 0.4375 C-2 0 -2 0 0 0 Z " fill="#482E35" transform="translate(376,262)"/>
<path d="M0 0 C1.85486952 2.78230428 2.72462112 4.84363607 3.6875 8 C3.95949219 8.86625 4.23148437 9.7325 4.51171875 10.625 C5 13 5 13 4 16 C2 15 2 15 0.875 13.0625 C-0.37069969 8.70255107 -0.15742081 4.50398419 0 0 Z " fill="#545F50" transform="translate(112,178)"/>
<path d="M0 0 C0.66 0 1.32 0 2 0 C1.88602456 2.43847451 1.75929026 4.87513174 1.625 7.3125 C1.5940625 8.00279297 1.563125 8.69308594 1.53125 9.40429688 C1.31875081 13.06990789 1.08066139 14.87900792 -1 18 C-1.02690844 15.37493198 -1.04679404 12.75013827 -1.0625 10.125 C-1.07087891 9.37863281 -1.07925781 8.63226563 -1.08789062 7.86328125 C-1.11328125 2.2265625 -1.11328125 2.2265625 0 0 Z " fill="#6C766B" transform="translate(253,137)"/>
<path d="M0 0 C0.33 0 0.66 0 1 0 C1.49940808 6.11774896 0.24900602 9.02495953 -3 14 C-3.66 14 -4.32 14 -5 14 C-5 12.35 -5 10.7 -5 9 C-4.01 8.67 -3.02 8.34 -2 8 C-2 6.35 -2 4.7 -2 3 C-1.34 3 -0.68 3 0 3 C0 2.01 0 1.02 0 0 Z " fill="#566253" transform="translate(437,120)"/>
<path d="M0 0 C2.14909962 2.76854598 4.01778828 5.57834526 5.75 8.625 C6.19859375 9.40101563 6.6471875 10.17703125 7.109375 10.9765625 C7.40328125 11.64429688 7.6971875 12.31203125 8 13 C7.67 13.66 7.34 14.32 7 15 C4.43087971 14.01269344 3.24027949 13.46442081 1.953125 10.9765625 C1.72109375 10.20054687 1.4890625 9.42453125 1.25 8.625 C1.00765625 7.85414063 0.7653125 7.08328125 0.515625 6.2890625 C0 4 0 4 0 0 Z " fill="#566853" transform="translate(123,209)"/>
<path d="M0 0 C0.66 0 1.32 0 2 0 C2.53251766 1.91345327 3.05059483 3.8309295 3.5625 5.75 C3.85253906 6.81734375 4.14257812 7.8846875 4.44140625 8.984375 C4.97098494 11.84335927 4.98370862 13.31597383 4 16 C0.98656045 12.67148232 0.55332456 10.18117187 0.3125 5.75 C0.24675781 4.67234375 0.18101563 3.5946875 0.11328125 2.484375 C0.07589844 1.66453125 0.03851563 0.8446875 0 0 Z " fill="#515E4D" transform="translate(88,81)"/>
<path d="M0 0 C0.99 0 1.98 0 3 0 C3 4.62 3 9.24 3 14 C2.34 14 1.68 14 1 14 C0.67 9.38 0.34 4.76 0 0 Z " fill="#482631" transform="translate(459,242)"/>
<path d="M0 0 C-0.33 1.32 -0.66 2.64 -1 4 C-3.64 3.67 -6.28 3.34 -9 3 C-9 5.97 -9 8.94 -9 12 C-9.33 12 -9.66 12 -10 12 C-10 8.7 -10 5.4 -10 2 C-6.38026598 0.68373308 -3.90432869 0 0 0 Z " fill="#5E4249" transform="translate(337,241)"/>
<path d="M0 0 C0.66 0 1.32 0 2 0 C3.15837626 4.05431692 2.83691257 6.21812119 1 10 C0.34 10 -0.32 10 -1 10 C-1 11.98 -1 13.96 -1 16 C-1.33 16 -1.66 16 -2 16 C-2.2396943 10.36718401 -1.38529821 5.45461169 0 0 Z " fill="#515D4F" transform="translate(20,184)"/>
<path d="M0 0 C4.01990146 -0.49223283 7.52902302 -0.81543289 11.15625 1.1953125 C13.02819032 2.72201792 14.59557213 4.03109147 16 6 C16 7.32 16 8.64 16 10 C15.34 10 14.68 10 14 10 C13.5875 9.05125 13.175 8.1025 12.75 7.125 C10.92264654 3.86186881 10.4608518 3.05748249 7 2 C4.67504723 1.61250787 2.34148732 1.27017161 0 1 C0 0.67 0 0.34 0 0 Z " fill="#472830" transform="translate(364,242)"/>
<path d="M0 0 C0.33 0 0.66 0 1 0 C1.16276042 2.01822917 1.32552083 4.03645833 1.48828125 6.0546875 C1.87393036 8.39519216 1.87393036 8.39519216 5 10 C2.69 10 0.38 10 -2 10 C-2.6875 8.375 -2.6875 8.375 -3 6 C-1.5625 2.75 -1.5625 2.75 0 0 Z " fill="#555E54" transform="translate(464,66)"/>
<path d="M0 0 C0.66 0.66 1.32 1.32 2 2 C0.86111328 1.98259766 0.86111328 1.98259766 -0.30078125 1.96484375 C-1.29464844 1.95582031 -2.28851563 1.94679687 -3.3125 1.9375 C-4.29863281 1.92589844 -5.28476563 1.91429687 -6.30078125 1.90234375 C-9.09963849 1.87670138 -9.09963849 1.87670138 -12 3 C-12 4.65 -12 6.3 -12 8 C-12.66 8 -13.32 8 -14 8 C-14.33 6.35 -14.66 4.7 -15 3 C-10.45092587 -0.63925931 -5.59826237 -0.76294903 0 0 Z " fill="#5E6A58" transform="translate(156,39)"/>
<path d="M0 0 C1.32 0.33 2.64 0.66 4 1 C3.95875 2.0725 3.9175 3.145 3.875 4.25 C3.9885825 7.65747485 4.21273364 9.20739631 6 12 C5.01 12.99 4.02 13.98 3 15 C2.01 10.05 1.02 5.1 0 0 Z " fill="#667461" transform="translate(71,103)"/>
<path d="M0 0 C2.30163882 3.45245824 2.34490322 4.94738713 2 9 C1.34 9.66 0.68 10.32 0 11 C-0.33 10.01 -0.66 9.02 -1 8 C-1.66 7.67 -2.32 7.34 -3 7 C-3 5.35 -3 3.7 -3 2 C-2.67 2.66 -2.34 3.32 -2 4 C-1.34 4 -0.68 4 0 4 C0 2.68 0 1.36 0 0 Z " fill="#60424A" transform="translate(380,248)"/>
<path d="M0 0 C1.0326802 2.78823655 1.04509293 3.8677274 0.0625 6.75 C-0.288125 7.4925 -0.63875 8.235 -1 9 C-2.65 8.67 -4.3 8.34 -6 8 C-2.25 2.25 -2.25 2.25 0 0 Z " fill="#5C6659" transform="translate(446,194)"/>
<path d="M0 0 C0.33 1.65 0.66 3.3 1 5 C-0.175625 4.9690625 -0.175625 4.9690625 -1.375 4.9375 C-3.98114961 4.81315937 -3.98114961 4.81315937 -6 6 C-6 4.35 -6 2.7 -6 1 C-4 0 -4 0 0 0 Z " fill="#546451" transform="translate(70,97)"/>
<path d="M0 0 C0.9075 0.185625 1.815 0.37125 2.75 0.5625 C5.68314324 0.95734621 7.2644657 0.94691572 10 0 C10.33 1.32 10.66 2.64 11 4 C6.35108046 4.32434322 3.77593392 3.776422 0 1 C0 0.67 0 0.34 0 0 Z " fill="#53624F" transform="translate(134,259)"/>
<path d="M0 0 C2.64 1.32 5.28 2.64 8 4 C8 4.33 8 4.66 8 5 C4.6875 5.6875 4.6875 5.6875 1 6 C-0.9375 4.5625 -0.9375 4.5625 -2 3 C-1.34 2.67 -0.68 2.34 0 2 C0 1.34 0 0.68 0 0 Z " fill="#593D44" transform="translate(360,259)"/>
<path d="M0 0 C2.5 2.25 2.5 2.25 5 5 C5 6.32 5 7.64 5 9 C4.01 9.33 3.02 9.66 2 10 C1.855625 8.906875 1.71125 7.81375 1.5625 6.6875 C1.11711896 3.06877013 1.11711896 3.06877013 0 0 Z " fill="#556554" transform="translate(558,129)"/>
<path d="M0 0 C0.28875 0.598125 0.5775 1.19625 0.875 1.8125 C2.04742026 4.19327792 2.04742026 4.19327792 4 7 C3.34 7 2.68 7 2 7 C1.67 7.99 1.34 8.98 1 10 C0.01 9.34 -0.98 8.68 -2 8 C-2 7.34 -2 6.68 -2 6 C-1.34 6 -0.68 6 0 6 C0 4.02 0 2.04 0 0 Z " fill="#72565E" transform="translate(275,254)"/>
<path d="M0 0 C1.65 0 3.3 0 5 0 C4.25 4.75 4.25 4.75 2 7 C0.5393715 4.35261084 0 3.10551666 0 0 Z " fill="#566652" transform="translate(481,179)"/>
<path d="M0 0 C1.32 0.33 2.64 0.66 4 1 C3.67 4.96 3.34 8.92 3 13 C2.67 13 2.34 13 2 13 C2 9.37 2 5.74 2 2 C0.35 2 -1.3 2 -3 2 C-2.01 1.34 -1.02 0.68 0 0 Z " fill="#7F656A" transform="translate(406,243)"/>
<path d="M0 0 C0.33 0 0.66 0 1 0 C1.90413673 3.83724172 2.10576898 7.37502274 2.0625 11.3125 C2.05347656 12.38113281 2.04445313 13.44976562 2.03515625 14.55078125 C2.02355469 15.35902344 2.01195312 16.16726562 2 17 C1.67 17 1.34 17 1 17 C-1.48063781 5.47835991 -1.48063781 5.47835991 0 0 Z " fill="#5E675A" transform="translate(569,148)"/>
<path d="M0 0 C0.66 0.33 1.32 0.66 2 1 C1.6875 3.875 1.6875 3.875 1 7 C0.01 7.66 -0.98 8.32 -2 9 C-2 5.20442119 -1.49821059 3.37097383 0 0 Z " fill="#505A4C" transform="translate(444,53)"/>
<path d="M0 0 C0.95465783 2.16967689 1.14401212 3.56328793 0.3984375 5.82421875 C-0.35870385 7.5684743 -1.17609198 9.28627131 -2 11 C-2.66 10.67 -3.32 10.34 -4 10 C-3.34 7.69 -2.68 5.38 -2 3 C-1.34 3 -0.68 3 0 3 C0 2.01 0 1.02 0 0 Z " fill="#5D695A" transform="translate(291,122)"/>
<path d="M0 0 C1.32 0.99 2.64 1.98 4 3 C3.34 4.98 2.68 6.96 2 9 C1.01 8.67 0.02 8.34 -1 8 C-0.67 5.36 -0.34 2.72 0 0 Z " fill="#5B6852" transform="translate(42,91)"/>
<path d="M0 0 C0.66 0.33 1.32 0.66 2 1 C2 2.65 2 4.3 2 6 C1.01 5.67 0.02 5.34 -1 5 C-3.16715557 5.87483915 -3.16715557 5.87483915 -5 7 C-3.75023244 3.34683329 -3.32901247 2.21934164 0 0 Z " fill="#5D6B59" transform="translate(326,41)"/>
<path d="M0 0 C0.79921875 0.01804688 1.5984375 0.03609375 2.421875 0.0546875 C3.02515625 0.07789063 3.6284375 0.10109375 4.25 0.125 C4.25 0.455 4.25 0.785 4.25 1.125 C3.64671875 1.25777344 3.0434375 1.39054687 2.421875 1.52734375 C1.62265625 1.70394531 0.8234375 1.88054688 0 2.0625 C-0.78890625 2.23652344 -1.5778125 2.41054688 -2.390625 2.58984375 C-4.51878703 3.072556 -6.63532842 3.58663178 -8.75 4.125 C-8.75 3.465 -8.75 2.805 -8.75 2.125 C-5.68753253 0.34090198 -3.52920727 -0.10380021 0 0 Z " fill="#666E63" transform="translate(468.75,39.875)"/>
<path d="M0 0 C3.12270126 2.51830747 3.94523098 3.7261549 4.75 7.75 C4.8325 8.8225 4.915 9.895 5 11 C4.34 11 3.68 11 3 11 C3 9.02 3 7.04 3 5 C2.34 5 1.68 5 1 5 C0.67 3.35 0.34 1.7 0 0 Z " fill="#565D52" transform="translate(205,186)"/>
<path d="M0 0 C1.98 0 3.96 0 6 0 C6.33 0.99 6.66 1.98 7 3 C7.66 3.33 8.32 3.66 9 4 C8.01 4.33 7.02 4.66 6 5 C2.8125 3.125 2.8125 3.125 0 1 C0 0.67 0 0.34 0 0 Z " fill="#556154" transform="translate(522,133)"/>
<path d="M0 0 C0.33 0 0.66 0 1 0 C1.75 3.1875 1.75 3.1875 2 7 C0.0625 9.9375 0.0625 9.9375 -2 12 C-1 3.42857143 -1 3.42857143 0 0 Z " fill="#636E5E" transform="translate(45,78)"/>
<path d="M0 0 C0.33 0 0.66 0 1 0 C1.12117188 0.71027344 1.24234375 1.42054688 1.3671875 2.15234375 C1.53476562 3.07144531 1.70234375 3.99054688 1.875 4.9375 C2.03742187 5.85402344 2.19984375 6.77054688 2.3671875 7.71484375 C2.57601563 8.46894531 2.78484375 9.22304687 3 10 C3.66 10.33 4.32 10.66 5 11 C1.125 10.125 1.125 10.125 0 9 C-0.07179964 7.48071962 -0.08392007 5.95832518 -0.0625 4.4375 C-0.05347656 3.61121094 -0.04445313 2.78492188 -0.03515625 1.93359375 C-0.02355469 1.29550781 -0.01195313 0.65742188 0 0 Z " fill="#465042" transform="translate(19,194)"/>
<path d="M0 0 C0.33 0 0.66 0 1 0 C1.19477739 1.62414378 1.38059458 3.24936423 1.5625 4.875 C1.66691406 5.77992188 1.77132812 6.68484375 1.87890625 7.6171875 C2 10 2 10 1 12 C0.34 12 -0.32 12 -1 12 C-0.67 8.04 -0.34 4.08 0 0 Z " fill="#445443" transform="translate(207,191)"/>
<path d="M0 0 C0.99 0 1.98 0 3 0 C3.66 1.65 4.32 3.3 5 5 C4.34 5 3.68 5 3 5 C2.34 5.66 1.68 6.32 1 7 C0.67 4.69 0.34 2.38 0 0 Z " fill="#596657" transform="translate(489,94)"/>
<path d="M0 0 C1.74627478 2.61941217 2.38722388 4.03824877 3 7 C1.35 6.67 -0.3 6.34 -2 6 C-2 5.34 -2 4.68 -2 4 C-1.34 4 -0.68 4 0 4 C0 2.68 0 1.36 0 0 Z " fill="#523A40" transform="translate(553,259)"/>
<path d="M0 0 C0.99 0.33 1.98 0.66 3 1 C3 2.65 3 4.3 3 6 C2.01 6 1.02 6 0 6 C0 4.02 0 2.04 0 0 Z " fill="#4D2D38" transform="translate(377,255)"/>
<path d="M0 0 C1 4 1 4 1 8 C-0.32 8.33 -1.64 8.66 -3 9 C-2.01 6.03 -1.02 3.06 0 0 Z " fill="#604349" transform="translate(537,248)"/>
<path d="M0 0 C1.125 1.75 1.125 1.75 2 4 C1.07451225 6.69933926 0.57626463 7.71186768 -2 9 C-1.125 1.125 -1.125 1.125 0 0 Z " fill="#6C7464" transform="translate(581,188)"/>
<path d="M0 0 C0.99 0 1.98 0 3 0 C3.33 2.64 3.66 5.28 4 8 C3.34 8 2.68 8 2 8 C1.34 5.36 0.68 2.72 0 0 Z " fill="#5B6959" transform="translate(94,110)"/>
<path d="M0 0 C0.33 0 0.66 0 1 0 C1.20140476 3.62528568 0.85776765 5.86501708 -1 9 C-1.66 9 -2.32 9 -3 9 C-2.01 6.03 -1.02 3.06 0 0 Z " fill="#697366" transform="translate(493,64)"/>
<path d="M0 0 C1.61949011 2.57213134 2.04408751 3.67669159 1.625 6.75 C1.41875 7.4925 1.2125 8.235 1 9 C0.34 8.34 -0.32 7.68 -1 7 C-0.625 3.375 -0.625 3.375 0 0 Z " fill="#525D51" transform="translate(50,58)"/>
<path d="M0 0 C2.50037734 2.17424117 3.43628586 3.73045798 4 7 C0.125 5.25 0.125 5.25 -1 3 C-0.67 2.01 -0.34 1.02 0 0 Z " fill="#5D6957" transform="translate(564,57)"/>
</svg>
